<svg xmlns="http://www.w3.org/2000/svg" xmlns:xlink="http://www.w3.org/1999/xlink" width="135" height="135" viewBox="0 0 135 135">
    <defs>
        <path id="a" d="M0 135V0h135v135z"/>
    </defs>
    <g fill="none" fill-rule="evenodd">
        <g>
            <mask id="b" fill="#fff">
                <use xlink:href="#a"/>
            </mask>
            <path fill="#FFCE00" d="M135 67.503C135 104.785 104.78 135 67.5 135 30.214 135 0 104.785 0 67.503 0 30.223 30.215 0 67.5 0 104.78 0 135 30.223 135 67.503" mask="url(#b)"/>
        </g>
        <path fill="#562912" d="M102 62.002C102 68.08 98.87 73 95.002 73 91.136 73 88 68.079 88 62.002 88 55.928 91.136 51 95.002 51 98.87 51 102 55.928 102 62.002M47 62.002C47 68.08 43.867 73 40.002 73 36.135 73 33 68.079 33 62.002 33 55.928 36.135 51 40.002 51 43.867 51 47 55.928 47 62.002"/>
    </g>
</svg>
