<svg xmlns="http://www.w3.org/2000/svg" xmlns:xlink="http://www.w3.org/1999/xlink" width="134" height="134" viewBox="0 0 134 134">
    <defs>
        <path id="a" d="M133.953.047V134H0V.047z"/>
    </defs>
    <g fill="none" fill-rule="evenodd">
        <g>
            <mask id="b" fill="#fff">
                <use xlink:href="#a"/>
            </mask>
            <path fill="#FFCE00" d="M133.953 67.023c0 36.99-29.984 66.977-66.976 66.977S0 104.014 0 67.023C0 30.031 29.985.047 66.977.047c36.992 0 66.976 29.984 66.976 66.976" mask="url(#b)"/>
        </g>
        <path fill="#562912" d="M103 44.238c0 2.083-.448 4.018-1.23 5.63-.5 1.038-1.87 1.488-2.823.81-1.033-.734-2.21-1.147-3.458-1.147-1.233 0-2.401.411-3.432 1.146-.952.68-2.328.23-2.826-.81-.783-1.61-1.231-3.546-1.231-5.629C88 38.591 91.357 34 95.489 34 99.642 34 103 38.591 103 44.238M46 44.238c0 2.083-.448 4.018-1.225 5.63-.503 1.038-1.877 1.488-2.828.81-1.03-.734-2.21-1.147-3.457-1.147-1.233 0-2.406.411-3.435 1.146-.951.68-2.327.23-2.827-.81-.78-1.61-1.228-3.546-1.228-5.629C31 38.591 34.356 34 38.49 34 42.644 34 46 38.591 46 44.238M32.94 69c-1.984 0-3.354 1.89-2.826 3.788C33.618 85.46 48.77 95 66.979 95c18.32 0 33.548-9.661 36.93-22.452.479-1.805-1-3.548-2.885-3.548H32.94z"/>
        <path fill="#FFF" d="M67.003 74c9.83 0 18.844-1.877 25.997-5H41c7.154 3.123 16.17 5 26.003 5"/>
        <path fill="#CC342F" d="M67.14 89c-5.182 0-9.84 2.054-13.14 5.33A47.242 47.242 0 0 0 66.526 96c4.761 0 9.296-.707 13.474-1.959C76.716 90.931 72.17 89 67.14 89"/>
    </g>
</svg>
