<svg xmlns="http://www.w3.org/2000/svg" xmlns:xlink="http://www.w3.org/1999/xlink" width="134" height="134" viewBox="0 0 134 134">
    <defs>
        <path id="a" d="M0 .144V134h133.856V.144z"/>
    </defs>
    <g fill="none" fill-rule="evenodd">
        <g>
            <mask id="b" fill="#fff">
                <use xlink:href="#a"/>
            </mask>
            <path fill="#FFCE00" d="M133.856 67.071c0 36.966-29.96 66.929-66.927 66.929C29.966 134 0 104.037 0 67.071 0 30.106 29.966.144 66.929.144c36.967 0 66.927 29.962 66.927 66.927" mask="url(#b)"/>
        </g>
        <path fill="#8D4D21" d="M89.436 103.97c1.991.326 3.36-2.068 2.045-3.635C85.663 93.436 76.646 89 66.497 89c-10.145 0-19.164 4.436-24.974 11.335-1.32 1.567.043 3.961 2.039 3.635 6.891-1.138 14.682-1.776 22.935-1.776 8.258 0 16.054.638 22.939 1.776"/>
        <path fill="#562912" d="M90.87 70.068c-.436-.228-.952.153-.859.619.755 3.586 4.484 6.313 8.986 6.313 4.508 0 8.24-2.727 8.992-6.313.093-.466-.428-.847-.857-.62-2.322 1.24-5.119 1.966-8.135 1.966-3.013 0-5.81-.726-8.126-1.965M25.869 70.068c-.437-.228-.953.153-.857.619C25.764 74.273 29.495 77 34 77c4.504 0 8.236-2.727 8.987-6.313.096-.466-.423-.847-.855-.62-2.32 1.24-5.117 1.966-8.132 1.966-3.016 0-5.815-.726-8.132-1.965M20.158 60c-.376 0-.754-.101-1.1-.317-1.026-.638-1.362-2.029-.758-3.108 3.623-6.426 10.24-10.744 16.574-10.57 1.194.021 2.146 1.053 2.126 2.304-.019 1.241-.983 2.233-2.16 2.233l-.205-.001c-4.74 0-9.793 3.335-12.616 8.346A2.145 2.145 0 0 1 20.158 60M112.841 60c-.736 0-1.453-.397-1.857-1.113-2.827-5.012-7.88-8.347-12.622-8.347l-.205.001c-1.173 0-2.138-.992-2.157-2.233-.018-1.251.933-2.284 2.127-2.305 6.22-.141 12.946 4.143 16.572 10.572.607 1.077.267 2.468-.76 3.107a2.041 2.041 0 0 1-1.098.318"/>
        <path fill="#61C0EB" d="M119.067 92.063c5.085 2.95 9.104 7.022 11.06 12.739 1.88 5.485.774 12.308-3.802 15.83-4.078 3.136-10.017 2.97-14.582.6-7.434-3.872-12.374-13.038-15.366-20.582-2.44-6.167-5.853-10.47-10.797-14.148-1.127-.836-.497-2.63.897-2.495 10.336 1.019 23.256 2.64 32.59 8.056"/>
    </g>
</svg>
