<svg xmlns="http://www.w3.org/2000/svg" xmlns:xlink="http://www.w3.org/1999/xlink" width="134" height="134" viewBox="0 0 134 134">
    <defs>
        <path id="a" d="M0 .015v133.97h133.985V.015z"/>
    </defs>
    <g fill="none" fill-rule="evenodd">
        <g>
            <mask id="b" fill="#fff">
                <use xlink:href="#a"/>
            </mask>
            <path fill="#FFCE00" d="M133.985 67c0 36.996-29.99 66.985-66.99 66.985C29.994 133.985 0 103.996 0 67 0 30.004 29.993.015 66.996.015c36.999 0 66.989 29.989 66.989 66.984" mask="url(#b)"/>
        </g>
        <path fill="#562912" d="M110 62.502a8.5 8.5 0 1 1-17-.004 8.5 8.5 0 0 1 17 .004M90.177 53c-.285 0-.57-.053-.847-.167-1.099-.45-1.621-1.651-1.165-2.707.164-.376 4.131-9.192 18.058-6.675 1.18.214 1.96 1.306 1.74 2.44-.223 1.136-1.36 1.884-2.548 1.668-10.319-1.865-13.115 3.937-13.228 4.185-.363.784-1.167 1.256-2.01 1.256M42 62.502C42 67.195 38.192 71 33.497 71A8.497 8.497 0 0 1 25 62.502C25 57.808 28.804 54 33.497 54A8.504 8.504 0 0 1 42 62.502M22.177 56a2.22 2.22 0 0 1-.85-.167c-1.098-.45-1.618-1.652-1.161-2.71.164-.373 4.14-9.182 18.056-6.675 1.18.214 1.96 1.305 1.741 2.44-.224 1.136-1.364 1.885-2.549 1.667-10.313-1.867-13.114 3.942-13.228 4.189-.365.784-1.168 1.256-2.009 1.256M74.232 110c-1.692 0-3.116-1.349-3.225-3.106-.118-1.83 1.237-3.408 3.019-3.527 9.361-.617 18.404-5.512 24.19-13.094a3.183 3.183 0 0 1 4.545-.567c1.406 1.131 1.652 3.219.55 4.66-6.905 9.048-17.699 14.889-28.87 15.628-.07.004-.139.006-.209.006"/>
    </g>
</svg>
