<svg xmlns="http://www.w3.org/2000/svg" xmlns:xlink="http://www.w3.org/1999/xlink" width="134" height="134" viewBox="0 0 134 134">
    <defs>
        <path id="a" d="M0 134V.055h133.945V134z"/>
    </defs>
    <g fill="none" fill-rule="evenodd">
        <g>
            <mask id="b" fill="#fff">
                <use xlink:href="#a"/>
            </mask>
            <path fill="#FFCE00" d="M133.945 67.029c0 36.99-29.982 66.971-66.972 66.971C29.984 134 0 104.018 0 67.029 0 30.039 29.984.055 66.973.055c36.99 0 66.972 29.983 66.972 66.974" mask="url(#b)"/>
        </g>
        <path fill="#562912" d="M92.736 94a3.223 3.223 0 0 1-2.221-.888c-5.43-5.14-12.818-8.143-20.803-8.454-8.873-.342-17.322 2.724-23.196 8.425a3.228 3.228 0 0 1-4.613-.11 3.351 3.351 0 0 1 .107-4.685c7.144-6.931 17.346-10.677 27.951-10.256 9.547.371 18.426 4 25 10.224a3.356 3.356 0 0 1 .164 4.688A3.235 3.235 0 0 1 92.736 94M109.61 74a2.16 2.16 0 0 1-.62-.09l-14.4-4.144a2.187 2.187 0 0 1-1.58-1.882 2.176 2.176 0 0 1 1.183-2.15c.002-.001 11.203-5.712 14.556-7.475a2.222 2.222 0 0 1 2.99.897 2.168 2.168 0 0 1-.91 2.952 1400.34 1400.34 0 0 1-9.703 4.997l9.103 2.62a2.175 2.175 0 0 1 1.503 2.703A2.208 2.208 0 0 1 109.61 74M28.39 74a2.21 2.21 0 0 1-2.121-1.572 2.172 2.172 0 0 1 1.502-2.702l9.103-2.62c-3.465-1.773-7.82-4.01-9.703-4.998a2.17 2.17 0 0 1-.912-2.952 2.221 2.221 0 0 1 2.992-.897c3.353 1.763 14.553 7.476 14.553 7.476a2.178 2.178 0 0 1 1.186 2.149 2.19 2.19 0 0 1-1.581 1.882L29.01 73.91a2.16 2.16 0 0 1-.62.09M111.864 51c-.107 0-.218-.01-.327-.026-10.652-1.652-16.005-10.34-16.226-10.71a2.152 2.152 0 0 1 .718-2.95 2.124 2.124 0 0 1 2.933.72c.081.13 4.624 7.359 13.226 8.692a2.15 2.15 0 0 1-.324 4.274M25.136 51a2.15 2.15 0 0 1-.324-4.274c8.705-1.349 13.182-8.617 13.225-8.692a2.124 2.124 0 0 1 2.935-.72 2.153 2.153 0 0 1 .718 2.95c-.221.37-5.574 9.058-16.227 10.71-.109.017-.22.026-.327.026"/>
    </g>
</svg>
