<svg xmlns="http://www.w3.org/2000/svg" xmlns:xlink="http://www.w3.org/1999/xlink" width="52" height="52" viewBox="0 0 52 52">
    <defs>
        <path id="a" d="M51.735.265V52H0V.265z"/>
    </defs>
    <g fill="none" fill-rule="evenodd">
        <g>
            <mask id="b" fill="#fff">
                <use xlink:href="#a"/>
            </mask>
            <path fill="#FFCE00" d="M51.735 26.133C51.735 40.419 40.155 52 25.867 52 11.581 52 0 40.42 0 26.133S11.58.265 25.867.265s25.868 11.581 25.868 25.868" mask="url(#b)"/>
        </g>
        <path fill="#562912" d="M40 18.216c0 .857-.18 1.654-.492 2.318-.2.427-.748.613-1.129.333a2.33 2.33 0 0 0-1.384-.472c-.493 0-.96.17-1.372.472-.381.28-.931.094-1.13-.333-.314-.664-.493-1.46-.493-2.318C34 15.89 35.343 14 36.995 14 38.657 14 40 15.89 40 18.216M18 18.216c0 .857-.18 1.654-.49 2.318-.201.427-.75.613-1.131.333a2.324 2.324 0 0 0-1.383-.472c-.493 0-.962.17-1.374.472-.38.28-.93.094-1.13-.333A5.474 5.474 0 0 1 12 18.216C12 15.89 13.342 14 14.996 14 16.658 14 18 15.89 18 18.216M13.152 28a1.14 1.14 0 0 0-1.107 1.457C13.418 34.33 19.355 38 26.492 38c7.18 0 13.147-3.716 14.472-8.635.188-.695-.391-1.365-1.13-1.365H13.152z"/>
        <path fill="#FFF" d="M26.001 30c3.781 0 7.248-.75 9.999-2H16c2.752 1.25 6.22 2 10.001 2"/>
        <path fill="#CC342F" d="M26.054 35c-1.993 0-3.785.88-5.054 2.284 1.504.461 3.125.716 4.818.716 1.831 0 3.575-.303 5.182-.84-1.263-1.333-3.012-2.16-4.946-2.16"/>
    </g>
</svg>
