<svg xmlns="http://www.w3.org/2000/svg" xmlns:xlink="http://www.w3.org/1999/xlink" width="135" height="135" viewBox="0 0 135 135">
    <defs>
        <path id="a" d="M0 .918h134.082V135H0z"/>
    </defs>
    <g fill="none" fill-rule="evenodd">
        <g>
            <mask id="b" fill="#fff">
                <use xlink:href="#a"/>
            </mask>
            <path fill="#FFCE00" d="M134.082 67.96c0 37.028-30.014 67.04-67.04 67.04C30.014 135 0 104.988 0 67.96 0 30.932 30.014.918 67.042.918c37.026 0 67.04 30.014 67.04 67.042" mask="url(#b)"/>
        </g>
        <path fill="#562912" d="M97.71 89H36.29C34.473 89 33 87.658 33 86c0-1.656 1.473-3 3.29-3h61.42c1.817 0 3.29 1.344 3.29 3 0 1.658-1.473 3-3.29 3M102 57a7 7 0 1 1-14 0 7 7 0 0 1 14 0M46 57a7 7 0 1 1-14.002-.002A7 7 0 0 1 46 57"/>
    </g>
</svg>
