<svg xmlns="http://www.w3.org/2000/svg" xmlns:xlink="http://www.w3.org/1999/xlink" width="52" height="52" viewBox="0 0 52 52">
    <defs>
        <path id="a" d="M51.734.265V52H0V.265z"/>
    </defs>
    <g fill="none" fill-rule="evenodd">
        <g>
            <mask id="b" fill="#fff">
                <use xlink:href="#a"/>
            </mask>
            <path fill="#FFCE00" d="M51.734 26.133C51.734 40.419 40.154 52 25.867 52 11.581 52 0 40.42 0 26.133S11.58.265 25.867.265s25.867 11.581 25.867 25.868" mask="url(#b)"/>
        </g>
        <path fill="#562912" d="M40.582 23.484c.27.17.626-.023.626-.346v-.008c0-1.937-1.538-3.507-3.434-3.507-1.897 0-3.434 1.57-3.434 3.507v.008c0 .323.355.516.625.346a5.243 5.243 0 0 1 2.809-.813c1.03 0 1.992.298 2.808.813M16.054 23.484a.409.409 0 0 0 .625-.346v-.008c0-1.937-1.538-3.507-3.435-3.507-1.896 0-3.433 1.57-3.433 3.507v.008a.409.409 0 0 0 .625.346 5.242 5.242 0 0 1 2.808-.813c1.031 0 1.993.298 2.81.813M25.647 38.264c-4.242 0-8.44-1.694-11.516-4.649a1.31 1.31 0 0 1-.063-1.81 1.21 1.21 0 0 1 1.751-.066c2.623 2.518 6.205 3.964 9.828 3.964 3.494 0 6.984-1.359 9.575-3.726a1.213 1.213 0 0 1 1.75.11 1.31 1.31 0 0 1-.107 1.808 16.599 16.599 0 0 1-11.218 4.37"/>
    </g>
</svg>
