<svg xmlns="http://www.w3.org/2000/svg" xmlns:xlink="http://www.w3.org/1999/xlink" width="135" height="135" viewBox="0 0 135 135">
    <defs>
        <path id="a" d="M134.882.118V135H0V.118z"/>
    </defs>
    <g fill="none" fill-rule="evenodd">
        <g>
            <mask id="b" fill="#fff">
                <use xlink:href="#a"/>
            </mask>
            <path fill="#FFCE00" d="M134.882 67.56c0 37.247-30.193 67.44-67.442 67.44C30.191 135 0 104.807 0 67.56 0 30.31 30.191.117 67.44.117c37.249 0 67.442 30.192 67.442 67.441" mask="url(#b)"/>
        </g>
        <path fill="#FFF" d="M69.024 78.158c-5.25 0-9.95 2.357-13.197 6.09h26.391c-3.244-3.733-7.947-6.09-13.194-6.09"/>
        <path fill="#562912" d="M79.23 109.624c4.275-3.172 7.048-8.176 7.048-13.82 0-4.446-1.723-8.489-4.536-11.556H55.29c-2.815 3.067-4.538 7.11-4.538 11.556 0 5.644 2.776 10.648 7.054 13.82 3.074-1.757 6.75-2.786 10.71-2.786 3.958 0 7.635 1.03 10.713 2.786"/>
        <path fill="#CC342F" d="M79.173 109.265c-3.062-1.694-6.722-2.686-10.659-2.686-3.94 0-7.598.992-10.657 2.686a18.246 18.246 0 0 0 10.657 3.404c4.01 0 7.692-1.28 10.659-3.404"/>
        <path fill="#562912" d="M27.27 38.571c-.534 0-1.064-.23-1.438-.678a1.974 1.974 0 0 1 .208-2.738c4.335-3.81 9.857-6.2 15.543-6.728a1.914 1.914 0 0 1 2.056 1.758c.093 1.07-.675 2.014-1.716 2.108-4.91.457-9.678 2.52-13.422 5.813a1.879 1.879 0 0 1-1.23.465M107.73 38.571c-.436 0-.872-.156-1.229-.465-3.749-3.294-8.516-5.356-13.425-5.813-1.041-.094-1.808-1.038-1.715-2.108a1.917 1.917 0 0 1 2.056-1.758c5.684.527 11.205 2.917 15.546 6.728.793.695.887 1.923.204 2.735-.372.45-.903.681-1.437.681"/>
        <path fill="#FFF" d="M111.654 56.331c0 8.138-6.362 14.722-14.21 14.722-7.848 0-14.21-6.584-14.21-14.722 0-8.127 6.362-14.714 14.21-14.714 7.848 0 14.21 6.587 14.21 14.714"/>
        <path fill="#562912" d="M102.519 55.824a6.092 6.092 0 0 1-6.088 6.093 6.09 6.09 0 1 1 6.088-6.093"/>
        <path fill="#FFF" d="M53.797 56.331c0 8.138-6.36 14.722-14.21 14.722-7.848 0-14.211-6.584-14.211-14.722 0-8.127 6.363-14.714 14.211-14.714 7.85 0 14.21 6.587 14.21 14.714"/>
        <path fill="#562912" d="M44.662 55.824a6.094 6.094 0 0 1-6.09 6.093 6.09 6.09 0 1 1 6.09-6.093"/>
    </g>
</svg>
